<svg width="12" height="12" viewBox="0 0 12 12" fill="none" xmlns="http://www.w3.org/2000/svg">
    <path fill-rule="evenodd" clip-rule="evenodd" d="M10.2 8.976V6.33C10.2 6.09804 10.0119 5.91 9.77995 5.91C9.54799 5.91 9.35995 6.09804 9.35995 6.33V8.976C9.35995 9.35376 9.05371 9.66 8.67595 9.66H2.72395C2.34619 9.66 2.03995 9.35376 2.03995 8.976V3.024C2.03995 2.64624 2.34619 2.34 2.72395 2.34H5.39995C5.51134 2.34 5.61817 2.29575 5.69694 2.21698C5.7757 2.13822 5.81995 2.03139 5.81995 1.92C5.81995 1.68804 5.63191 1.5 5.39995 1.5H2.72395C1.88227 1.5 1.19995 2.18232 1.19995 3.024V8.976C1.19995 9.81768 1.88227 10.5 2.72395 10.5H8.67595C9.51763 10.5 10.2 9.81768 10.2 8.976ZM9.97195 1.53C10.0749 1.57319 10.1568 1.65506 10.2 1.758C10.2085 1.81166 10.2085 1.86634 10.2 1.92V4.134C10.2 4.36596 10.0119 4.554 9.77995 4.554C9.54799 4.554 9.35995 4.36596 9.35995 4.134V2.934L4.12795 8.178C3.96187 8.34273 3.69403 8.34273 3.52795 8.178C3.36322 8.01192 3.36322 7.74408 3.52795 7.578L8.77195 2.37H7.57195C7.33999 2.37 7.15195 2.18196 7.15195 1.95C7.15195 1.71804 7.33999 1.53 7.57195 1.53H9.80995C9.86361 1.52147 9.91829 1.52147 9.97195 1.53Z" fill="#2C5CC5"/>
</svg>
