<svg xmlns="http://www.w3.org/2000/svg" width="16" height="16" viewBox="0 0 16 16" fill="none">
  <g clip-path="url(#clip0_6939_37152)">
    <path d="M8 0C12.4185 0 16 3.5815 16 8C16 12.4185 12.4185 16 8 16C3.5815 16 0 12.4185 0 8C0 3.5815 3.5815 0 8 0Z" fill="#2C5CC5"/>
    <path d="M8.70688 8.70786V11.2959C8.70688 11.6864 8.39038 12.0029 7.99988 12.0029C7.60938 12.0029 7.29288 11.6864 7.29288 11.2959V8.70786L4.71188 8.71486C4.32138 8.71486 4.00488 8.39836 4.00488 8.00786C4.00488 7.61736 4.32138 7.30086 4.71188 7.30086L7.29288 7.29386L7.28588 4.71286C7.28588 4.32236 7.60238 4.00586 7.99288 4.00586C8.38338 4.00586 8.69988 4.32236 8.69988 4.71286L8.70688 7.29386H11.2949C11.6854 7.29386 12.0019 7.61036 12.0019 8.00086C12.0019 8.39136 11.6854 8.70786 11.2949 8.70786H8.70688Z" fill="white"/>
  </g>
  <defs>
    <clipPath id="clip0_6939_37152">
      <rect width="16" height="16" fill="white"/>
    </clipPath>
  </defs>
</svg>