<svg width="10" height="10" viewBox="0 0 10 10" fill="none" xmlns="http://www.w3.org/2000/svg">
<path fill-rule="evenodd" clip-rule="evenodd" d="M9.19995 7.976V5.33C9.19995 5.09804 9.01191 4.91 8.77995 4.91C8.54799 4.91 8.35995 5.09804 8.35995 5.33V7.976C8.35995 8.35376 8.05371 8.66 7.67595 8.66H1.72395C1.34619 8.66 1.03995 8.35376 1.03995 7.976V2.024C1.03995 1.64624 1.34619 1.34 1.72395 1.34H4.39995C4.51134 1.34 4.61817 1.29575 4.69694 1.21698C4.7757 1.13822 4.81995 1.03139 4.81995 0.92C4.81995 0.68804 4.63191 0.5 4.39995 0.5H1.72395C0.882269 0.5 0.199951 1.18232 0.199951 2.024V7.976C0.199951 8.81768 0.882269 9.5 1.72395 9.5H7.67595C8.51763 9.5 9.19995 8.81768 9.19995 7.976ZM8.97195 0.53C9.07489 0.573191 9.15676 0.655062 9.19995 0.758C9.20848 0.811663 9.20848 0.866337 9.19995 0.92V3.134C9.19995 3.36596 9.01191 3.554 8.77995 3.554C8.54799 3.554 8.35995 3.36596 8.35995 3.134V1.934L3.12795 7.178C2.96187 7.34273 2.69403 7.34273 2.52795 7.178C2.36322 7.01192 2.36322 6.74408 2.52795 6.578L7.77195 1.37H6.57195C6.33999 1.37 6.15195 1.18196 6.15195 0.95C6.15195 0.71804 6.33999 0.53 6.57195 0.53H8.80995C8.86361 0.52147 8.91829 0.52147 8.97195 0.53Z" fill="#2C5CC5"/>
</svg>
