<svg width="16" height="16" viewBox="0 0 16 16" fill="none" xmlns="http://www.w3.org/2000/svg">
    <path fill-rule="evenodd" clip-rule="evenodd" d="M3.304 11.768C3.61328 11.768 3.864 11.5173 3.864 11.208C3.864 10.8987 3.61328 10.648 3.304 10.648H3.12V3.12H9.896V3.304C9.896 3.61328 10.1467 3.864 10.456 3.864C10.7653 3.864 11.016 3.61328 11.016 3.304V2.56C11.016 2.25072 10.7653 2 10.456 2H2.56C2.25072 2 2 2.25072 2 2.56V11.208C2 11.5173 2.25072 11.768 2.56 11.768H3.304ZM13.44 4.984H5.54401C5.23473 4.984 4.98401 5.23472 4.98401 5.544V13.44C4.98401 13.7493 5.23473 14 5.54401 14H13.44C13.7493 14 14 13.7493 14 13.44V5.544C14 5.23472 13.7493 4.984 13.44 4.984ZM12.88 12.88H6.10401V6.104H12.88V12.88Z" fill="#2C5CC5"/>
</svg>
