<svg width="10" height="10" viewBox="0 0 10 10" fill="none" xmlns="http://www.w3.org/2000/svg">
<path d="M1.78015 4.50155L4.80488 1.55098C4.99955 1.36109 5.00342 1.04934 4.81353 0.854669C4.81068 0.851752 4.8078 0.848871 4.80488 0.846026C4.60389 0.649958 4.2832 0.649958 4.08221 0.846026L0.130516 4.70081C-0.0347371 4.86201 -0.0380223 5.12665 0.123178 5.2919C0.125593 5.29438 0.12804 5.29683 0.130516 5.29924L4.08221 9.15403C4.2832 9.35009 4.60389 9.35009 4.80488 9.15403C4.99955 8.96413 5.00342 8.65238 4.81353 8.45771C4.81068 8.4548 4.8078 8.45191 4.80488 8.44907L1.78015 5.49851H9.48916C9.77138 5.49851 10.0002 5.27533 10.0002 5.00003C10.0002 4.72472 9.77138 4.50155 9.48916 4.50155H1.78015Z" fill="#2C5CC5"/>
</svg>
