<svg width="100" height="100" viewBox="0 0 100 100" fill="none" xmlns="http://www.w3.org/2000/svg">
<g clip-path="url(#clip0_8819_177824)">
<path opacity="0.2" d="M50.0003 81.1066C68.4098 81.1066 83.3337 66.1828 83.3337 47.7733C83.3337 29.3638 68.4098 14.4399 50.0003 14.4399C31.5908 14.4399 16.667 29.3638 16.667 47.7733C16.667 66.1828 31.5908 81.1066 50.0003 81.1066Z" fill="#BFC7D3"/>
<path d="M20.8994 78.0664H71.3261V20.7331C71.3261 19.2597 70.1328 18.0664 68.6594 18.0664H27.3261C25.8527 18.0664 24.6594 19.2597 24.6594 20.7331V74.1664C24.6594 75.2464 24.2127 76.2797 23.4194 77.0131C22.8927 77.4997 22.3594 77.7264 22.2061 77.7864C21.6861 77.9997 21.2194 78.0531 20.8994 78.0664Z" fill="white"/>
<path d="M71.7266 78.4665H20.8999L20.8799 77.6665C21.2865 77.6465 21.6799 77.5665 22.0532 77.4132C22.2732 77.3199 22.7199 77.1065 23.1399 76.7199C23.8465 76.0665 24.2532 75.1332 24.2532 74.1665V20.7332C24.2532 19.0398 25.6266 17.6665 27.3199 17.6665H68.6532C70.3466 17.6665 71.7199 19.0398 71.7199 20.7332V78.4665H71.7266ZM23.2399 77.6665H70.9266V20.7332C70.9266 19.4798 69.9066 18.4665 68.6599 18.4665H27.3266C26.0732 18.4665 25.0599 19.4865 25.0599 20.7332V74.1665C25.0599 75.3532 24.5599 76.4998 23.6932 77.3065C23.5399 77.4465 23.3932 77.5665 23.2465 77.6665H23.2399Z" fill="#92A2B1"/>
<path d="M16.834 61.6865H24.6607V74.1532C24.6607 76.3132 22.9073 78.0665 20.7473 78.0665C18.5873 78.0665 16.834 76.3132 16.834 74.1532V61.6865Z" fill="white"/>
<path d="M20.7469 78.4666C18.3669 78.4666 16.4336 76.5333 16.4336 74.1533V61.2866H25.0603V74.1533C25.0603 76.5333 23.1269 78.4666 20.7469 78.4666ZM17.2336 62.08V74.1533C17.2336 76.0933 18.8069 77.6666 20.7469 77.6666C22.6869 77.6666 24.2603 76.0866 24.2603 74.1533V62.08H17.2336Z" fill="#92A2B1"/>
<path d="M76.3086 78.2314L79.7483 73.3153L87.27 78.5781C88.6246 79.526 88.956 81.4014 88.0082 82.7561C87.0603 84.1107 85.1849 84.4421 83.8302 83.4942L76.3086 78.2314Z" fill="white"/>
<path d="M85.5461 84.4398C84.8728 84.4398 84.1928 84.2398 83.5994 83.8264L75.7461 78.3331L79.6461 72.7598L87.4994 78.2531C89.0328 79.3264 89.4128 81.4531 88.3328 82.9864C87.6728 83.9331 86.6128 84.4331 85.5394 84.4331L85.5461 84.4398ZM76.8661 78.1398L84.0594 83.1731C85.2328 83.9931 86.8594 83.7064 87.6794 82.5331C88.4994 81.3598 88.2128 79.7331 87.0394 78.9131L79.8461 73.8798L76.8661 78.1398Z" fill="#92A2B1"/>
<path d="M76.3847 72.8318L74.6992 75.2407L77.1081 76.9262L78.7936 74.5173L76.3847 72.8318Z" fill="white"/>
<path d="M77.2063 77.4863L74.1396 75.3396L76.2863 72.2729L79.353 74.4196L77.2063 77.4863ZM75.253 75.1463L77.0063 76.3729L78.233 74.6196L76.4796 73.3929L75.253 75.1463Z" fill="#92A2B1"/>
<path d="M61.8792 81.2795C70.9846 81.2795 78.3659 73.8982 78.3659 64.7928C78.3659 55.6875 70.9846 48.3062 61.8792 48.3062C52.7739 48.3062 45.3926 55.6875 45.3926 64.7928C45.3926 73.8982 52.7739 81.2795 61.8792 81.2795Z" fill="white"/>
<path d="M61.8798 81.6796C52.5665 81.6796 44.9932 74.1063 44.9932 64.7929C44.9932 55.4796 52.5665 47.9062 61.8798 47.9062C71.1932 47.9062 78.7665 55.4796 78.7665 64.7929C78.7665 74.1063 71.1932 81.6796 61.8798 81.6796ZM61.8798 48.7062C53.0065 48.7062 45.7932 55.9263 45.7932 64.7929C45.7932 73.6596 53.0132 80.8796 61.8798 80.8796C70.7465 80.8796 77.9665 73.6596 77.9665 64.7929C77.9665 55.9263 70.7465 48.7062 61.8798 48.7062Z" fill="#92A2B1"/>
<path d="M61.88 78.1736C69.2696 78.1736 75.26 72.1831 75.26 64.7936C75.26 57.404 69.2696 51.4136 61.88 51.4136C54.4904 51.4136 48.5 57.404 48.5 64.7936C48.5 72.1831 54.4904 78.1736 61.88 78.1736Z" fill="white"/>
<path d="M61.8796 78.58C54.2796 78.58 48.0996 72.4 48.0996 64.8C48.0996 57.2 54.2796 51.02 61.8796 51.02C69.4796 51.02 75.6596 57.2 75.6596 64.8C75.6596 72.4 69.4796 78.58 61.8796 78.58ZM61.8796 51.8134C54.7196 51.8134 48.8996 57.64 48.8996 64.7934C48.8996 71.9467 54.7263 77.78 61.8796 77.78C69.0329 77.78 74.8663 71.9534 74.8663 64.7934C74.8663 57.6334 69.0396 51.8134 61.8796 51.8134Z" fill="#92A2B1"/>
<g opacity="0.25">
<path d="M60.6136 67.2196V66.9129C60.6136 65.8063 61.0202 64.9263 62.3736 63.7263C63.2069 62.9729 63.4136 62.3863 63.4136 61.7196C63.4136 60.9796 62.9736 60.2796 61.9403 60.2796C60.8336 60.2796 60.3936 61.0129 60.2669 61.9996H58.0869C58.1669 60.6396 59.0403 58.5263 61.9803 58.5396C64.7936 58.5529 65.6536 60.4129 65.6536 61.7863C65.6536 62.9463 65.2736 63.7329 63.9803 64.9263C63.1736 65.6729 62.9069 66.2663 62.9069 67.0463V67.2196H60.6069H60.6136ZM60.6136 71.0463V68.2663H62.9136V71.0463H60.6136Z" fill="#C4CCD4"/>
</g>
<path d="M45.3865 43.0662C45.2598 43.0662 45.1331 43.0062 45.0598 42.8995C44.9331 42.7195 44.9798 42.4662 45.1598 42.3395C45.7731 41.9129 47.0531 41.1929 48.7798 41.2262C50.4065 41.2529 51.6065 41.9329 52.1798 42.3395C52.3598 42.4662 52.4065 42.7195 52.2798 42.8995C52.1531 43.0795 51.9065 43.1262 51.7198 42.9995C51.2198 42.6462 50.1731 42.0595 48.7665 42.0329C47.2531 41.9929 46.1465 42.6262 45.6198 42.9995C45.5465 43.0462 45.4665 43.0729 45.3931 43.0729L45.3865 43.0662Z" fill="#C4CCD4"/>
<path d="M38.2139 36.213C38.1139 36.213 38.0139 36.1797 37.9339 36.0997C37.7739 35.9463 37.7672 35.693 37.9205 35.533L42.0539 31.2263C42.2072 31.0663 42.4605 31.0597 42.6205 31.213C42.7805 31.3663 42.7872 31.6197 42.6339 31.7797L38.5005 36.0863C38.4205 36.1663 38.3139 36.2063 38.2139 36.2063V36.213Z" fill="#C4CCD4"/>
<path d="M42.4336 36.1266C42.3336 36.1266 42.2336 36.0933 42.1536 36.0133L37.8469 31.8799C37.6869 31.7266 37.6803 31.4733 37.8336 31.3133C37.9869 31.1533 38.2403 31.1466 38.4003 31.2999L42.7069 35.4333C42.8669 35.5866 42.8736 35.8399 42.7203 35.9999C42.6403 36.0799 42.5336 36.1199 42.4336 36.1199V36.1266Z" fill="#C4CCD4"/>
<path d="M54.3008 36.213C54.2008 36.213 54.1008 36.1797 54.0208 36.0997C53.8608 35.9463 53.8541 35.693 54.0074 35.533L58.1408 31.2263C58.2941 31.0663 58.5474 31.0597 58.7074 31.213C58.8674 31.3663 58.8741 31.6197 58.7208 31.7797L54.5874 36.0863C54.5074 36.1663 54.4008 36.2063 54.3008 36.2063V36.213Z" fill="#C4CCD4"/>
<path d="M58.5205 36.1266C58.4205 36.1266 58.3205 36.0933 58.2405 36.0133L53.9339 31.8799C53.7739 31.7266 53.7672 31.4733 53.9205 31.3133C54.0739 31.1533 54.3272 31.1466 54.4872 31.2999L58.7939 35.4333C58.9539 35.5866 58.9605 35.8399 58.8072 35.9999C58.7272 36.0799 58.6205 36.1199 58.5205 36.1199V36.1266Z" fill="#C4CCD4"/>
<path d="M93.3328 89.5598H89.6461C89.4261 89.5598 89.2461 89.3798 89.2461 89.1598C89.2461 88.9398 89.4261 88.7598 89.6461 88.7598H93.3328C93.5528 88.7598 93.7328 88.9398 93.7328 89.1598C93.7328 89.3798 93.5528 89.5598 93.3328 89.5598Z" fill="#92A2B1"/>
<path d="M85.6394 89.5598H69.4928C69.2728 89.5598 69.0928 89.3798 69.0928 89.1598C69.0928 88.9398 69.2728 88.7598 69.4928 88.7598H85.6394C85.8594 88.7598 86.0394 88.9398 86.0394 89.1598C86.0394 89.3798 85.8594 89.5598 85.6394 89.5598Z" fill="#92A2B1"/>
<path d="M65.6666 89.5598H6.6666C6.4466 89.5598 6.2666 89.3798 6.2666 89.1598C6.2666 88.9398 6.4466 88.7598 6.6666 88.7598H65.6666C65.8866 88.7598 66.0666 88.9398 66.0666 89.1598C66.0666 89.3798 65.8866 89.5598 65.6666 89.5598Z" fill="#92A2B1"/>
<path d="M17.4134 22.3864H12.6334C12.4134 22.3864 12.2334 22.2064 12.2334 21.9864C12.2334 21.7664 12.4134 21.5864 12.6334 21.5864H17.4134C17.6334 21.5864 17.8134 21.7664 17.8134 21.9864C17.8134 22.2064 17.6334 22.3864 17.4134 22.3864Z" fill="#92A2B1"/>
<path d="M23.0729 16.0266C22.8529 16.0266 22.6729 15.8466 22.6729 15.6266V10.8399C22.6729 10.6199 22.8529 10.4399 23.0729 10.4399C23.2929 10.4399 23.4729 10.6199 23.4729 10.8399V15.6266C23.4729 15.8466 23.2929 16.0266 23.0729 16.0266Z" fill="#92A2B1"/>
<path d="M18.4529 17.5732C18.3663 17.5732 18.2796 17.5465 18.2063 17.4932L14.4129 14.5799C14.2396 14.4465 14.2063 14.1932 14.3396 14.0199C14.4729 13.8465 14.7263 13.8132 14.8996 13.9465L18.6929 16.8599C18.8663 16.9932 18.8996 17.2465 18.7663 17.4199C18.6863 17.5199 18.5663 17.5732 18.4463 17.5732H18.4529Z" fill="#92A2B1"/>
</g>
<defs>
<clipPath id="clip0_8819_177824">
<rect width="100" height="100" fill="white"/>
</clipPath>
</defs>
</svg>
