<svg width="80" height="80" viewBox="0 0 80 80" fill="none" xmlns="http://www.w3.org/2000/svg">
<path d="M71.498 71.5674H74.426" stroke="#92A2B1" stroke-width="1.2" stroke-linecap="round" stroke-linejoin="round"/>
<path d="M55.5032 71.5674H68.3192" stroke="#92A2B1" stroke-width="1.2" stroke-linecap="round" stroke-linejoin="round"/>
<path d="M5.62616 71.5674H52.4582" stroke="#92A2B1" stroke-width="1.2" stroke-linecap="round" stroke-linejoin="round"/>
<path opacity="0.2" d="M40.0266 67.8665C54.7542 67.8665 66.6932 55.9275 66.6932 41.1999C66.6932 26.4723 54.7542 14.5332 40.0266 14.5332C25.299 14.5332 13.3599 26.4723 13.3599 41.1999C13.3599 55.9275 25.299 67.8665 40.0266 67.8665Z" fill="#BFC7D3"/>
<path d="M58.5386 33.5416L43.5573 21.4989L46.7573 17.0723C47.0186 17.0723 47.4293 17.1096 47.8879 17.2589C50.16 18.0109 51.0826 20.8376 51.4293 21.7976C52.2879 24.1816 54.1813 27.7816 58.5333 33.5363L58.5386 33.5416Z" fill="white"/>
<path d="M46.4323 17.1143H48.4589" stroke="#A0ADB4" stroke-width="1.2" stroke-miterlimit="10"/>
<path d="M59.7494 29.1996V62.7729C59.7494 63.9516 58.7947 64.9063 57.616 64.9063H24.5547C23.376 64.9063 22.4214 63.9516 22.4214 62.7729V19.2476C22.4214 18.0689 23.376 17.1143 24.5547 17.1143H37.7067" fill="white"/>
<path d="M59.7494 29.1996V62.7729C59.7494 63.9516 58.7947 64.9063 57.616 64.9063H24.5547C23.376 64.9063 22.4214 63.9516 22.4214 62.7729V19.2476C22.4214 18.0689 23.376 17.1143 24.5547 17.1143H37.7067" stroke="#92A2B1" stroke-width="1.2" stroke-miterlimit="10"/>
<path d="M59.7495 29.1996H50.7522C49.4829 29.1996 48.4589 28.1489 48.4589 26.8583V17.1143L59.7495 29.1996Z" fill="#92A2B1" stroke="#92A2B1" stroke-width="1.2" stroke-linecap="round" stroke-linejoin="round"/>
<path d="M28.0589 24.4326H35.5895" stroke="#C4CCD4" stroke-width="1.2" stroke-linecap="round" stroke-linejoin="round"/>
<path d="M28.0589 28.2715H35.5895" stroke="#C4CCD4" stroke-width="1.2" stroke-linecap="round" stroke-linejoin="round"/>
<path d="M33.0187 52.9544C33.5574 52.4477 36.4854 49.7864 40.9441 49.9517C44.8907 50.0957 47.4241 52.3571 48.0534 52.9544" stroke="#C4CCD4" stroke-width="1.2" stroke-linecap="round" stroke-linejoin="round"/>
<path d="M33.2693 44.032L37.2746 39.8613" stroke="#C4CCD4" stroke-width="1.2" stroke-linecap="round" stroke-linejoin="round"/>
<path d="M33.1838 39.9414L37.3545 43.9467" stroke="#C4CCD4" stroke-width="1.2" stroke-linecap="round" stroke-linejoin="round"/>
<path d="M43.9895 44.032L47.9895 39.8613" stroke="#C4CCD4" stroke-width="1.2" stroke-linecap="round" stroke-linejoin="round"/>
<path d="M43.9041 39.9414L48.0747 43.9467" stroke="#C4CCD4" stroke-width="1.2" stroke-linecap="round" stroke-linejoin="round"/>
<path d="M37.7067 17.1143L35.7333 24.4743L40.0533 27.7543V35.6689L45.744 24.9703L42.8693 22.5543L46.432 17.1143" fill="#EFF2F4"/>
<path d="M37.7067 17.1143L35.7333 24.4743L40.0533 27.7543V35.6689L45.744 24.9703L42.8693 22.5543L46.432 17.1143" stroke="#A0ADB4" stroke-width="1.2" stroke-miterlimit="10" stroke-linecap="round"/>
<path d="M36.9172 10.5918L38.8532 13.1678" stroke="#92A2B1" stroke-width="1.2" stroke-linecap="round" stroke-linejoin="round"/>
<path d="M47.1574 11.7012L44.576 13.6425" stroke="#92A2B1" stroke-width="1.2" stroke-linecap="round" stroke-linejoin="round"/>
<path d="M41.9039 8.55371L41.8719 11.7804" stroke="#92A2B1" stroke-width="1.2" stroke-linecap="round" stroke-linejoin="round"/>
</svg>
